<?xml version="1.0" encoding="UTF-8" standalone="no"?>
<svg width="15px" height="14px" viewBox="0 0 15 14" version="1.1" xmlns="http://www.w3.org/2000/svg" xmlns:xlink="http://www.w3.org/1999/xlink">
  <g id="footer" stroke="none" stroke-width="1" fill="none" fill-rule="evenodd">
    <g id="fa-twitter" transform="translate(-13.000000, 0.000000)" fill="#515B66">
       <path d="M14.3233297,3.02217629 C14.6149622,3.31380878 15.020649,3.45962503 15.5064625,3.45962503 L15.5230654,3.45962503 C16.0413627,3.45962503 16.4463277,3.31380878 16.7538411,3.02217629 C17.0620765,2.71394095 17.2078927,2.35734082 17.2078927,1.9040111 C17.2078927,1.46656235 17.0454736,1.09408124 16.7538411,0.802448745 C16.4622087,0.510816248 16.0572437,0.365 15.5548273,0.365 C15.052411,0.365 14.647446,0.510816248 14.3399326,0.802448745 C14.0316972,1.09408124 13.87,1.46656235 13.87,1.9040111 C13.87,2.35734082 14.0158162,2.71394095 14.3233297,3.02217629 L14.3233297,3.02217629 Z M14.0483001,13.6350005 L17.0295927,13.6350005 L17.0295927,4.69112265 L14.0483001,4.69112265 L14.0483001,13.6350005 Z M21.6473478,13.6350005 L21.6473478,8.64404234 C21.6473478,8.33652886 21.6798316,8.09326116 21.7447993,7.91496109 C21.8740127,7.60744762 22.0689156,7.34829894 22.3280643,7.13751506 C22.5706101,6.92673117 22.8947264,6.82927972 23.2838104,6.82927972 C23.8021077,6.82927972 24.1745888,7.00757979 24.4178565,7.36417992 C24.6611242,7.72078005 24.7903376,8.22319643 24.7903376,8.85482622 L24.7903376,13.6350005 L27.7716302,13.6350005 L27.7716302,8.51482893 C27.7716302,7.18587985 27.4641168,6.18176895 26.832487,5.50105251 C26.2001353,4.82033606 25.3736026,4.48033877 24.3370079,4.48033877 C23.9645268,4.48033877 23.6079267,4.52870357 23.2996913,4.62615502 C22.9921779,4.70700363 22.7330292,4.8369389 22.5063643,5.01451711 C22.2955804,5.17693619 22.1331614,5.33863342 22.0039479,5.48517153 C21.8740127,5.63026592 21.7447993,5.792685 21.630745,5.98686605 L21.6473478,5.98686605 L21.6473478,4.69112265 L18.6660552,4.69112265 L18.6819362,5.1285714 L18.6819362,7.80162866 C18.6819362,9.29227496 18.6819362,11.2369728 18.6660552,13.6350005 L21.6473478,13.6350005 L21.6473478,13.6350005 Z" id="Fill-54"></path>
    </g>
  </g>
</svg>
