<?xml version="1.0" encoding="UTF-8"?>
<svg width="37px" height="21px" viewBox="0 0 37 21" version="1.1" xmlns="http://www.w3.org/2000/svg" xmlns:xlink="http://www.w3.org/1999/xlink">
    <g id="Page-1" stroke="none" stroke-width="1" fill="none" fill-rule="evenodd">
        <g id="sample-available">
            <g id="Group-2" fill="#508696">
                <path d="M2,2 L2,19 L27,19 L27,2 L2,2 Z M0,0 L29,0 L29,21 L0,21 L0,0 Z" id="Rectangle" fill-rule="nonzero"></path>
                <path d="M18,5 L11,5 L11,7 L18,7 L18,5 Z M20,5 L20,7 L27,7 L27,9 L20,9 L20,11 L27,11 L27,13 L20,13 L20,15 L27,15 L27,17 L20,17 L20,19 L18,19 L18,17 L11,17 L11,19 L9,19 L9,17 L0,17 L0,15 L9,15 L9,13 L0,13 L0,11 L9,11 L9,9 L0,9 L0,7 L9,7 L9,5 L0,5 L0,0 L29,0 L29,5 L20,5 Z M18,15 L18,13 L11,13 L11,15 L18,15 Z M18,11 L18,9 L11,9 L11,11 L18,11 Z" id="Combined-Shape"></path>
            </g>
            <g id="Group" transform="translate(20.000000, 2.000000)">
                <circle id="Oval" fill="#05B888" cx="8.5" cy="8.5" r="8.5"></circle>
                <polygon id="Path-2" fill="#FFFFFF" fill-rule="nonzero" points="6.97877429 10.5482283 12.1166353 4.41312902 13.6499663 5.69722255 7.1100929 13.5064592 3.34939244 9.74944567 4.76291225 8.3345387"></polygon>
            </g>
        </g>
    </g>
</svg>
