<?xml version="1.0" encoding="UTF-8" standalone="no"?>
<svg width="16px" height="13px" viewBox="0 0 16 13" version="1.1" xmlns="http://www.w3.org/2000/svg" xmlns:xlink="http://www.w3.org/1999/xlink">
	<g id="footer" stroke="none" stroke-width="1" fill="none" fill-rule="evenodd">
   	<g id="fa-twitter" transform="translate(1.000000, 0.000000)" fill="#515B66">
       <path d="M4.33783274,12.6079838 C5.43033147,12.6079838 6.45364622,12.4376847 7.42678358,12.0963264 C8.38243487,11.737482 9.20123872,11.2767623 9.8839554,10.6966812 C10.549186,10.1166001 11.1467532,9.45136949 11.6416847,8.70022909 C12.1191303,7.9323629 12.4947005,7.14701064 12.7334232,6.32820679 C12.9729062,5.50940294 13.0922676,4.68983882 13.0922676,3.85354891 L13.0922676,3.46125291 C13.6890745,3.01801926 14.2014921,2.48887582 14.628,1.87458287 C14.0304328,2.11330563 13.4503517,2.28360466 12.8527846,2.33530258 C13.5187755,1.94224633 13.9794952,1.37965129 14.2014921,0.645996959 C13.603925,1.00408109 12.9554202,1.26028991 12.2559777,1.39637709 C11.6416847,0.747872276 10.8905443,0.424 10.0033168,0.424 C9.16702686,0.424 8.43337253,0.713660416 7.83580537,1.31122757 C7.23899848,1.92552053 6.931852,2.64244906 6.931852,3.49546477 C6.931852,3.71746173 6.96606386,3.95618449 7.01700152,4.19490725 C5.75420375,4.14396959 4.5765555,3.81933705 3.46733097,3.25674202 C2.3755925,2.67666092 1.436667,1.92552053 0.668800811,0.987355297 C0.395866194,1.46480081 0.242292955,1.97645819 0.242292955,2.53981348 C0.242292955,3.05147086 0.379140395,3.54640243 0.617863153,4.00712215 C0.874071972,4.45111607 1.19794425,4.8092002 1.6244521,5.09962088 C1.12952053,5.08213482 0.668800811,4.94604764 0.225567157,4.70732489 L0.225567157,4.74153675 C0.225567157,5.49191688 0.464289914,6.14042169 0.92500963,6.70377699 C1.40245514,7.26713229 1.98253624,7.60773036 2.69946477,7.7613036 C2.42653016,7.82972732 2.15359554,7.86393918 1.88066092,7.86393918 C1.70960162,7.86393918 1.52181652,7.84721338 1.30057983,7.81300152 C1.50509072,8.42729448 1.86317486,8.93895185 2.3923183,9.33200811 C2.92146173,9.7410299 3.51902889,9.9455408 4.1842595,9.9455408 C3.05830917,10.8335286 1.7955114,11.2600365 0.361654334,11.2600365 C0.0887197162,11.2600365 -0.150003041,11.2600365 -0.372,11.2258246 C1.04437101,12.1472641 2.63104105,12.6079838 4.33783274,12.6079838" id="Fill-178"></path>
	    </g>
	</g>
</svg>
