<?xml version="1.0" encoding="UTF-8"?>
<svg width="30px" height="28px" viewBox="0 0 30 28" version="1.1" xmlns="http://www.w3.org/2000/svg" xmlns:xlink="http://www.w3.org/1999/xlink">
    <!-- Generator: Sketch 50.2 (55047) - http://www.bohemiancoding.com/sketch -->
    <title>Artboard</title>
    <desc>Created with Sketch.</desc>
    <defs></defs>
    <g id="Artboard" stroke="none" stroke-width="1" fill="none" fill-rule="evenodd">
        <path d="M22.012633,19.9997559 L7.99530029,19.9997559 C7.99530029,25.1249028 7.99530029,27.8793913 7.99530029,28.2632213 C3.18402928,25.7653672 0,20.7955555 0,15 C0,6.71572875 6.71572875,0 15,0 C23.2842712,0 30,6.71572875 30,15 C30,20.7509918 26.7635416,25.7460683 22.012633,28.2632213 C22.012633,27.9129561 22.012633,25.1584676 22.012633,19.9997559 Z M15,17 C17.7614237,17 20,14.7614237 20,12 C20,9.23857625 17.7614237,7 15,7 C12.2385763,7 10,9.23857625 10,12 C10,14.7614237 12.2385763,17 15,17 Z" id="Combined-Shape" fill="#4F7283"></path>
    </g>
</svg>